<?xml version="1.0" encoding="iso-8859-1"?>
<!-- Generator: Adobe Illustrator 19.0.0, SVG Export Plug-In . SVG Version: 6.00 Build 0)  -->
<svg version="1.1" id="Layer_1" xmlns="http://www.w3.org/2000/svg" xmlns:xlink="http://www.w3.org/1999/xlink" x="0px" y="0px"
	 viewBox="0 0 460 460" style="enable-background:new 0 0 460 460;" xml:space="preserve">
<g id="XMLID_228_">
	<polygon id="XMLID_229_" style="fill:#A3B1C4;" points="240,187.5 230,45 30,45 30,330 130,340 230,330 	"/>
	<path id="XMLID_230_" style="fill:#A3B1C4;" d="M0,360v25c0,16.568,13.431,30,30,30h200l10-24.995L230,360l-115-10L0,360z"/>
	<polygon id="XMLID_231_" style="fill:#6B81A1;" points="155,390 155,350 230,360 240,375 230,390 	"/>
	<polygon id="XMLID_232_" style="fill:#FFFFFF;" points="30,330 0,360 230,360 230,330 	"/>
	<polygon id="XMLID_233_" style="fill:#6B81A1;" points="230,45 230,330 330,340 430,330 430,45 	"/>
	<path id="XMLID_235_" style="fill:#233145;" d="M60,300V75h170l10,112.5L230,300H60z"/>
	<path id="XMLID_237_" style="fill:#121923;" d="M230,300V75h170v225H230z"/>
	<path id="XMLID_239_" style="fill:#6B81A1;" d="M230,360v55h200c16.569,0,30-13.432,30-30v-25l-115-10L230,360z"/>
	<polygon id="XMLID_240_" style="fill:#466289;" points="230,390 230,360 305,350 305,390 	"/>
	<polygon id="XMLID_241_" style="fill:#BEC8D6;" points="430,330 230,330 230,360 460,360 	"/>
</g>
<g>
</g>
<g>
</g>
<g>
</g>
<g>
</g>
<g>
</g>
<g>
</g>
<g>
</g>
<g>
</g>
<g>
</g>
<g>
</g>
<g>
</g>
<g>
</g>
<g>
</g>
<g>
</g>
<g>
</g>
</svg>
