<?xml version="1.0" encoding="iso-8859-1"?>
<!-- Generator: Adobe Illustrator 19.0.0, SVG Export Plug-In . SVG Version: 6.00 Build 0)  -->
<svg version="1.1" id="Layer_1" xmlns="http://www.w3.org/2000/svg" xmlns:xlink="http://www.w3.org/1999/xlink" x="0px" y="0px"
	 viewBox="0 0 512 512" style="enable-background:new 0 0 512 512;" xml:space="preserve">
<path style="fill:#6FB0B6;" d="M402.475,177.05C375.808,161.485,326.528,153.6,256,153.6c-70.537,0-119.817,7.885-146.483,23.45
	l-11.648,6.793l-6.178-11.981c-9.95-19.285-18.799-40.687-27.034-65.408L59.042,89.6H76.8c38.366,0,70.042-21.359,100.676-42.01
	C204.015,29.696,229.077,12.8,256,12.8s51.985,16.896,78.524,34.79C365.158,68.241,396.834,89.6,435.2,89.6h17.758l-5.615,16.845
	c-8.226,24.695-17.075,46.089-27.042,65.417l-6.178,11.981L402.475,177.05z M256,57.6c-26.317,0-32,5.683-32,32
	c0,17.988,22.298,28.877,26.769,30.882c1.664,0.742,3.422,1.118,5.231,1.118s3.567-0.375,5.222-1.118
	C265.702,118.477,288,107.597,288,89.6C288,63.283,282.317,57.6,256,57.6z"/>
<path style="fill:#6D7584;" d="M256,268.8c-101.086,0-166.4-25.122-166.4-64c0-47.505,127.36-51.2,166.4-51.2
	s166.4,3.695,166.4,51.2C422.4,243.678,357.086,268.8,256,268.8z"/>
<g>
	<path style="fill:#494E58;" d="M179.2,345.6c-64,0-64-38.511-64-64v-1.553c0-5.265,0-11.537,0.094-18.074l0.29-18.679l17.314,7.006
		c29.892,12.1,72.457,18.5,123.102,18.5v25.6c-3.789,0-7.646,5.188-13.645,13.67C231.791,323.012,215.817,345.6,179.2,345.6z"/>
	<path style="fill:#494E58;" d="M332.8,345.6c-36.617,0-52.591-22.588-63.155-37.53c-5.99-8.482-9.856-13.67-13.645-13.67v-25.6
		c50.637,0,93.201-6.4,123.102-18.492l17.323-7.014l0.273,18.688c0.094,6.699,0.094,13.124,0.094,18.475v1.143
		C396.8,307.089,396.8,345.6,332.8,345.6z"/>
</g>
<path style="fill:#FFE7E5;" d="M256,499.2c-91.75,0-166.4-91.878-166.4-204.8c0-0.811,0.051-1.604,0.111-2.389l25.626-0.759
	c0.998,26.88,9.37,54.349,63.863,54.349c36.625,0,51.959-21.692,63.155-37.53c1.152-1.63,2.261-3.191,3.337-4.651L256,289.408
	l10.308,14.012c1.075,1.459,2.176,3.021,3.166,4.412c11.375,16.077,26.718,37.769,63.326,37.769
	c54.366,0,62.788-27.281,63.846-53.965l25.591,0.375c0.094,0.725,0.162,1.545,0.162,2.389C422.4,407.322,347.75,499.2,256,499.2z"/>
<path style="fill:#FEDEA1;" d="M250.769,120.482C244.489,117.666,224,107.136,224,89.6c0-26.317,5.683-32,32-32s32,5.683,32,32
	c0,17.536-20.489,28.075-26.769,30.882L256,122.829L250.769,120.482z"/>
<g>
	<path style="fill:#573A32;" d="M211.2,89.6c0,25.233,26.283,38.955,34.338,42.564c3.328,1.493,6.895,2.236,10.462,2.236
		c3.567,0,7.134-0.742,10.462-2.236c8.055-3.61,34.338-17.331,34.338-42.564c0-33.493-11.307-44.8-44.8-44.8
		S211.2,56.107,211.2,89.6z M275.2,89.6c0,10.607-19.2,19.2-19.2,19.2s-19.2-8.593-19.2-19.2c0-19.2,0-19.2,19.2-19.2
		C275.2,70.4,275.2,70.4,275.2,89.6z"/>
	<path style="fill:#573A32;" d="M455.97,87.433C451.157,80.751,443.426,76.8,435.2,76.8c-34.458,0-64.486-20.25-93.525-39.825
		C313.472,17.963,286.839,0,256,0s-57.472,17.963-85.675,36.975C141.286,56.55,111.258,76.8,76.8,76.8
		c-8.226,0-15.957,3.951-20.77,10.633c-4.813,6.673-6.118,15.258-3.516,23.066c10.701,32.102,21.495,55.834,30.797,73.088
		c-4.659,7.031-6.511,14.276-6.511,21.214c0,9.481,2.867,18.202,8.158,26.155c-5.248,20.54-8.158,41.89-8.158,63.445
		C76.8,414.387,157.193,512,256,512s179.2-97.613,179.2-217.6c0-21.564-2.884-42.931-8.132-63.471
		c5.274-7.945,8.132-16.657,8.132-26.129c0-6.955-1.86-14.225-6.554-21.274c9.335-17.297,20.113-40.849,30.839-73.028
		C462.089,102.69,460.783,94.106,455.97,87.433z M256,486.4c-84.83,0-153.6-85.965-153.6-192c0-0.905,0.128-1.766,0.145-2.671
		c0.99,26.633,9.165,66.671,76.655,66.671c43.247,0,62.251-26.88,73.609-42.94c0.981-1.382,2.099-2.97,3.191-4.454
		c1.092,1.485,2.21,3.072,3.191,4.454c11.358,16.06,30.362,42.94,73.609,42.94c67.123,0,75.58-39.62,76.646-66.253
		c0.009,0.768,0.154,1.485,0.154,2.253C409.6,400.435,340.83,486.4,256,486.4z M128,281.6c0-5.513-0.009-12.314,0.094-19.43
		C158.942,274.654,202.505,281.6,256,281.6s97.058-6.946,127.906-19.43c0.102,7.117,0.094,13.926,0.094,19.43
		c0,25.6,0,51.2-51.2,51.2s-51.2-51.2-76.8-51.2s-25.6,51.2-76.8,51.2S128,307.2,128,281.6z M256,256
		c-102.4,0-153.6-25.6-153.6-51.2s76.8-38.4,153.6-38.4s153.6,12.8,153.6,38.4S358.4,256,256,256z M408.917,165.99
		C384.085,151.501,338.048,140.8,256,140.8c-82.057,0-128.094,10.701-152.926,25.19c-7.987-15.471-17.058-35.942-26.274-63.59
		c76.8,0,128-76.8,179.2-76.8s102.4,76.8,179.2,76.8C425.984,130.048,416.913,150.511,408.917,165.99z"/>
</g>
<g>
</g>
<g>
</g>
<g>
</g>
<g>
</g>
<g>
</g>
<g>
</g>
<g>
</g>
<g>
</g>
<g>
</g>
<g>
</g>
<g>
</g>
<g>
</g>
<g>
</g>
<g>
</g>
<g>
</g>
</svg>
