<?xml version="1.0" encoding="iso-8859-1"?>
<!-- Generator: Adobe Illustrator 19.0.0, SVG Export Plug-In . SVG Version: 6.00 Build 0)  -->
<svg version="1.1" id="Layer_1" xmlns="http://www.w3.org/2000/svg" xmlns:xlink="http://www.w3.org/1999/xlink" x="0px" y="0px"
	 viewBox="0 0 460 460" style="enable-background:new 0 0 460 460;" xml:space="preserve">
<g id="XMLID_944_">
	<polygon id="XMLID_945_" style="fill:#DAE0E7;" points="131.67,129.69 141.67,264.69 86.67,264.69 101.667,129.69 	"/>
	<polygon id="XMLID_946_" style="fill:#FFFFFF;" points="71.667,129.69 86.67,264.69 31.67,264.69 41.67,129.69 	"/>
	<rect id="XMLID_947_" x="71.667" y="129.693" style="fill:#FB7B46;" width="30" height="134.997"/>
	<polygon id="XMLID_948_" style="fill:#466289;" points="0,129.693 0,314.865 30,314.865 40,460 86.667,460 96.667,357.345 
		86.667,254.69 41.67,254.69 41.67,129.69 	"/>
	<polygon id="XMLID_949_" style="fill:#DAE0E7;" points="275,129.69 285,264.69 230,264.69 245,129.69 	"/>
	<polygon id="XMLID_950_" style="fill:#FFFFFF;" points="215,129.69 230,264.69 175,264.69 185,129.69 	"/>
	<rect id="XMLID_951_" x="215" y="129.693" style="fill:#3897FF;" width="30" height="134.997"/>
	<polygon id="XMLID_952_" style="fill:#354A67;" points="131.67,129.69 131.67,254.69 86.667,254.69 86.667,460 133.333,460 
		143.333,314.865 173.333,314.865 183.333,460 230,460 240,357.345 230,254.69 185,254.69 185,129.69 	"/>
	<polygon id="XMLID_953_" style="fill:#DAE0E7;" points="418.333,129.69 428.333,264.69 373.333,264.69 388.333,129.69 	"/>
	<polygon id="XMLID_954_" style="fill:#FFFFFF;" points="358.333,129.69 373.333,264.69 318.333,264.69 328.333,129.69 	"/>
	<rect id="XMLID_955_" x="358.333" y="129.693" style="fill:#2D79CC;" width="30" height="134.997"/>
	<polygon id="XMLID_956_" style="fill:#233145;" points="275,129.69 275,254.69 230,254.69 230,460 276.667,460 286.667,314.865 
		316.667,314.865 326.667,460 373.333,460 383.333,357.345 373.333,254.69 328.333,254.69 328.333,129.69 	"/>
	<path id="XMLID_957_" style="fill:#354A67;" d="M230,110.102l10-55.051L230,0c-30.327,0-55,24.696-55,55.051
		S199.673,110.102,230,110.102z"/>
	<path id="XMLID_958_" style="fill:#233145;" d="M285,55.051C285,24.696,260.327,0,230,0v110.102
		C260.327,110.102,285,85.406,285,55.051z"/>
	<path id="XMLID_959_" style="fill:#466289;" d="M86.667,110.102l10-55.051L86.667,0c-30.327,0-55,24.696-55,55.051
		S56.34,110.102,86.667,110.102z"/>
	<path id="XMLID_960_" style="fill:#354A67;" d="M141.667,55.051c0-30.355-24.673-55.051-55-55.051v110.102
		C116.994,110.102,141.667,85.406,141.667,55.051z"/>
	<polygon id="XMLID_961_" style="fill:#121923;" points="460,129.693 460,314.865 430,314.865 420,460 373.333,460 373.333,254.69 
		418.333,254.69 418.333,129.69 	"/>
	<path id="XMLID_962_" style="fill:#233145;" d="M373.333,110.102l10-55.051L373.333,0c-30.327,0-55,24.696-55,55.051
		S343.006,110.102,373.333,110.102z"/>
	<path id="XMLID_963_" style="fill:#121923;" d="M428.333,55.051c0-30.355-24.673-55.051-55-55.051v110.102
		C403.66,110.102,428.333,85.406,428.333,55.051z"/>
</g>
<g>
</g>
<g>
</g>
<g>
</g>
<g>
</g>
<g>
</g>
<g>
</g>
<g>
</g>
<g>
</g>
<g>
</g>
<g>
</g>
<g>
</g>
<g>
</g>
<g>
</g>
<g>
</g>
<g>
</g>
</svg>
