<?xml version="1.0" encoding="iso-8859-1"?>
<!-- Generator: Adobe Illustrator 19.0.0, SVG Export Plug-In . SVG Version: 6.00 Build 0)  -->
<svg version="1.1" id="Layer_1" xmlns="http://www.w3.org/2000/svg" xmlns:xlink="http://www.w3.org/1999/xlink" x="0px" y="0px"
	 viewBox="0 0 511.991 511.991" style="enable-background:new 0 0 511.991 511.991;" xml:space="preserve">
<path style="fill:#263238;" d="M257.631,475.356h-5.67c-8.44,0-15.637-6.101-17.026-14.42l-14.852-89.136h71.911l-17.423,89.594
	C273,469.496,265.89,475.356,257.631,475.356z"/>
<g>
	<path style="fill:#37474F;" d="M136.591,494.755l-5.333-1.942c-7.931-2.882-12.608-11.081-11.063-19.374l16.526-88.843
		l67.579,24.595l-47.015,78.228C153.03,494.505,144.349,497.577,136.591,494.755z"/>
	<path style="fill:#37474F;" d="M375.487,494.755l5.333-1.942c7.931-2.882,12.608-11.081,11.063-19.374l-16.526-88.843
		l-67.579,24.595l47.015,78.228C359.047,494.505,367.72,497.577,375.487,494.755z"/>
</g>
<path style="fill:#455A64;" d="M432.357,142.008c-110.918,0-238.206,0-352.713,0c-8.051,11.426-15.102,23.602-20.841,36.512
	c-19.434,43.718-18.64,94.202,1.562,137.575c9.795,21.022,22.877,40.197,38.583,56.878c19.909,21.143,45.988,35.546,74.362,41.725
	c26.648,5.808,54.307,8.889,82.698,8.889s56.05-3.081,82.698-8.889c28.374-6.179,54.453-20.582,74.362-41.725
	c15.706-16.673,28.789-35.856,38.583-56.878c20.202-43.364,20.996-93.857,1.562-137.575
	C447.458,165.61,440.408,153.433,432.357,142.008z"/>
<path style="fill:#37474F;" d="M49.474,73.255c8.233,23.835,18.416,46.816,30.161,68.753c115.612,30.049,237.11,30.049,352.713,0
	c11.788-22.006,21.988-45.056,30.238-68.977L49.474,73.255z"/>
<path style="fill:#90A4AE;" d="M56.378,79.486c130.843,33.319,268.392,33.319,399.244,0c9.985-2.546,9.985-16.914,0-19.46
	c-130.843-33.319-268.392-33.319-399.244,0C46.393,62.571,46.393,76.94,56.378,79.486z"/>
<path style="fill:#76FF03;" d="M256,87.218c-55.644,0-111.151-5.868-165.44-17.458C144.849,58.162,200.364,52.293,256,52.293
	c55.644,0,111.151,5.868,165.44,17.458C367.15,81.358,311.636,87.218,256,87.218z"/>
<g>
	<path style="fill:#546E7A;" d="M46.997,235.079c-3.089,0-6.222-0.828-9.044-2.572C14.187,217.846,0,192.448,0,164.549
		c0-35.692,29.03-64.723,64.723-64.723c9.527,0,21.643,32.62,14.921,42.182c-1.433,2.028-2.865-7.663-14.921-7.663
		c-4.582,0-8.932,1.027-12.824,2.856c-10.261,4.841-17.38,15.275-17.38,27.348c0,5.532,0.984,10.899,2.839,15.887
		c3.452,9.286,14.86,10.036,18.83,4.323C61.616,176.923,52.788,235.079,46.997,235.079z"/>
	<path style="fill:#546E7A;" d="M465.003,235.079c3.089,0,6.222-0.828,9.044-2.572c23.758-14.662,37.945-40.068,37.945-67.959
		c0-35.692-29.03-64.723-64.723-64.723c-9.536,0-21.643,32.62-14.921,42.182c1.433,2.028,2.865-7.663,14.921-7.663
		c4.582,0,8.932,1.027,12.824,2.856c10.261,4.833,17.38,15.275,17.38,27.348c0,5.532-0.984,10.899-2.839,15.887
		c-3.452,9.286-14.86,10.036-18.83,4.323C450.384,176.923,459.212,235.079,465.003,235.079z"/>
</g>
<g>
	<path style="fill:#B2FF59;" d="M237.256,58.213c0,13.376-10.848,11.547-24.224,11.547s-24.224,1.838-24.224-11.547
		s10.848-24.224,24.224-24.224C226.409,33.99,237.256,44.837,237.256,58.213z"/>
	<path style="fill:#B2FF59;" d="M328.092,52.293c0,19.935-16.163,23.214-36.098,23.214c-19.935,0-36.098-3.279-36.098-23.214
		s16.163-36.098,36.098-36.098C311.929,16.204,328.092,32.359,328.092,52.293z"/>
</g>
<g>
</g>
<g>
</g>
<g>
</g>
<g>
</g>
<g>
</g>
<g>
</g>
<g>
</g>
<g>
</g>
<g>
</g>
<g>
</g>
<g>
</g>
<g>
</g>
<g>
</g>
<g>
</g>
<g>
</g>
</svg>
