<?xml version="1.0" encoding="iso-8859-1"?>
<!-- Generator: Adobe Illustrator 19.0.0, SVG Export Plug-In . SVG Version: 6.00 Build 0)  -->
<svg version="1.1" id="Layer_1" xmlns="http://www.w3.org/2000/svg" xmlns:xlink="http://www.w3.org/1999/xlink" x="0px" y="0px"
	 viewBox="0 0 512.001 512.001" style="enable-background:new 0 0 512.001 512.001;" xml:space="preserve">
<path style="fill:#FC303F;" d="M279.153,501.552H83.592c-40.396,0-73.143-32.747-73.143-73.143V155.926h341.845v272.484
	C352.295,468.805,319.548,501.552,279.153,501.552z"/>
<path style="fill:#EA0011;" d="M471.294,222.462c-19.426-19.359-45.057-30.011-72.199-30.011c-0.073,0-0.146,0-0.22,0
	c-16.358,0.036-32.229,3.931-46.579,11.326v43.345c3.937,0.003,7.915-1.14,11.4-3.548c10.4-7.19,22.595-11.005,35.265-11.033
	c0.045,0,0.089,0,0.133,0c16.459,0,32.046,6.502,43.901,18.318c11.888,11.847,18.447,27.462,18.466,43.968
	c0.021,16.673-6.457,32.353-18.239,44.149c-11.782,11.796-27.454,18.293-44.125,18.293c-6.263,0-12.437-0.924-18.351-2.746
	c-9.635-2.97-19.733-1.959-28.448,2.682v53.303l0,0c6.106,0,11.575-2.731,15.252-7.038c4.479-5.247,11.364-7.87,18.205-6.977
	c4.408,0.576,8.864,0.865,13.342,0.865c28.036,0,54.348-11.181,73.849-31.438c17.087-17.749,27.249-41.215,28.475-65.821
	C502.875,270.918,492.037,243.134,471.294,222.462z"/>
<path d="M478.67,215.061c-21.392-21.319-49.652-33.059-79.574-33.059h-0.242c-12.467,0.027-24.554,2.038-36.108,5.989v-32.065
	c0-5.771-4.679-10.449-10.449-10.449H10.45c-5.77,0-10.449,4.678-10.449,10.449V428.41c0,46.092,37.499,83.591,83.591,83.591h195.56
	c46.092,0,83.591-37.499,83.591-83.591v-9.307c4.884-1.782,9.29-4.795,12.75-8.848c2.161-2.532,5.577-3.835,8.906-3.4
	c4.845,0.632,9.79,0.953,14.695,0.953c30.97,0,59.869-12.302,81.376-34.64c18.883-19.615,30.029-45.38,31.383-72.548
	C513.464,268.377,501.678,237.991,478.67,215.061z M362.744,255.716c2.419-0.883,4.736-2.057,6.893-3.547
	c8.653-5.982,18.8-9.156,29.323-9.178h0.134c13.673,0,26.645,5.423,36.525,15.27c9.91,9.876,15.377,22.868,15.392,36.581
	c0.018,13.879-5.376,26.931-15.183,36.752c-9.808,9.82-22.853,15.228-36.731,15.228c-5.218,0-10.358-0.768-15.274-2.282
	c-6.945-2.141-14.117-2.669-21.078-1.633v-87.19H362.744z M341.846,428.41c0,34.569-28.124,62.694-62.694,62.694H83.592
	c-34.569,0-62.694-28.124-62.694-62.694V210.111h259.645c5.77,0,10.449-4.678,10.449-10.449c0-5.771-4.679-10.449-10.449-10.449
	H20.899v-22.838h320.947v190.72c0,0.026,0,0.052,0,0.078V428.41z M490.985,299.579c-1.103,22.128-10.182,43.114-25.568,59.095
	c-17.53,18.208-41.083,28.236-66.322,28.236c-4.005,0-8.038-0.261-11.991-0.777c-8.923-1.163-17.739,1.573-24.361,7.384v-29.28
	c4.84-1.321,9.979-1.25,14.924,0.274c6.912,2.128,14.122,3.208,21.428,3.208c19.465,0,37.761-7.585,51.517-21.358
	c13.757-13.774,21.319-32.079,21.296-51.545c-0.022-19.299-7.673-37.538-21.538-51.358c-13.824-13.778-32.034-21.366-51.277-21.366
	h-0.156c-12.815,0.027-25.21,3.379-36.193,9.732v-21.433c11.409-4.941,23.538-7.465,36.13-7.492h0.22
	c24.354,0,47.375,9.576,64.823,26.964C482.681,248.564,492.294,273.321,490.985,299.579z"/>
<path d="M230.868,131.66c0,5.771,4.679,10.449,10.449,10.449c5.77,0,10.449-4.678,10.449-10.449c0-5.604,2.247-8.929,6.554-14.801
	c4.893-6.672,10.982-14.975,10.982-28.528c0-13.452-6.004-21.394-10.829-27.776c-4.037-5.341-6.706-8.87-6.706-15.602
	c0-6.684,2.668-10.215,6.706-15.56c3.201-4.235,6.827-9.034,8.99-15.73c1.772-5.492-1.241-11.381-6.732-13.154
	c-5.493-1.772-11.381,1.241-13.155,6.732c-1.076,3.335-3.254,6.217-5.775,9.553c-4.869,6.445-10.931,14.466-10.931,28.207
	c0,13.693,6.064,21.713,10.935,28.157c3.975,5.258,6.601,8.731,6.601,15.173c0,6.711-2.909,10.679-6.936,16.17
	C236.746,110.94,230.868,118.954,230.868,131.66z"/>
<path d="M162.156,131.66c0,5.771,4.679,10.449,10.449,10.449c5.77,0,10.449-4.678,10.449-10.449c0-5.604,2.247-8.929,6.553-14.802
	c4.893-6.672,10.982-14.974,10.982-28.528c0-13.452-6.004-21.394-10.828-27.776c-4.039-5.341-6.706-8.87-6.706-15.602
	c0-6.685,2.668-10.215,6.705-15.56c3.201-4.235,6.827-9.034,8.99-15.73c1.772-5.492-1.241-11.381-6.732-13.154
	c-5.492-1.772-11.381,1.241-13.155,6.732c-1.076,3.335-3.254,6.217-5.774,9.553c-4.87,6.445-10.931,14.466-10.931,28.207
	c0,13.693,6.062,21.713,10.934,28.156c3.976,5.258,6.601,8.731,6.601,15.173c0,6.711-2.909,10.679-6.936,16.17
	C168.033,110.94,162.156,118.954,162.156,131.66z"/>
<path d="M93.444,131.66c0,5.771,4.679,10.449,10.449,10.449c5.77,0,10.449-4.678,10.449-10.449c0-5.604,2.247-8.929,6.554-14.801
	c4.893-6.672,10.982-14.975,10.982-28.528c0-13.452-6.004-21.394-10.829-27.776c-4.037-5.341-6.706-8.87-6.706-15.602
	c0-6.684,2.668-10.215,6.706-15.56c3.201-4.235,6.827-9.034,8.99-15.73c1.772-5.492-1.241-11.381-6.732-13.154
	c-5.493-1.772-11.381,1.241-13.155,6.732c-1.076,3.335-3.254,6.217-5.775,9.553C99.506,23.24,93.445,31.26,93.445,45.002
	c0,13.693,6.064,21.713,10.935,28.157c3.975,5.258,6.601,8.731,6.601,15.173c0,6.711-2.909,10.679-6.936,16.17
	C99.321,110.94,93.444,118.954,93.444,131.66z"/>
<path d="M102.041,438.732c-15.368-9.375-24.542-25.702-24.542-43.677V329.52c0-5.771-4.679-10.449-10.449-10.449
	s-10.449,4.678-10.449,10.449v65.536c0,25.32,12.918,48.318,34.557,61.518c1.7,1.037,3.578,1.53,5.431,1.53
	c3.522,0,6.961-1.782,8.931-5.009C108.525,448.168,106.968,441.738,102.041,438.732z"/>
<path d="M128.617,446.173l-0.344-0.001c-0.026,0-0.052,0-0.078,0c-5.734,0-10.405,4.628-10.447,10.373
	c-0.042,5.77,4.602,10.482,10.373,10.524l0.497,0.002c5.77,0,10.449-4.678,10.449-10.449
	C139.067,450.851,134.387,446.173,128.617,446.173z"/>
<path d="M313.12,189.214h-0.327c-5.77,0-10.449,4.678-10.449,10.449c0,5.771,4.679,10.449,10.449,10.449h0.327
	c5.77,0,10.449-4.678,10.449-10.449C323.569,193.892,318.89,189.214,313.12,189.214z"/>
<g>
</g>
<g>
</g>
<g>
</g>
<g>
</g>
<g>
</g>
<g>
</g>
<g>
</g>
<g>
</g>
<g>
</g>
<g>
</g>
<g>
</g>
<g>
</g>
<g>
</g>
<g>
</g>
<g>
</g>
</svg>
