<?xml version="1.0" encoding="iso-8859-1"?>
<!-- Generator: Adobe Illustrator 19.0.0, SVG Export Plug-In . SVG Version: 6.00 Build 0)  -->
<svg version="1.1" id="Layer_1" xmlns="http://www.w3.org/2000/svg" xmlns:xlink="http://www.w3.org/1999/xlink" x="0px" y="0px"
	 viewBox="0 0 512.001 512.001" style="enable-background:new 0 0 512.001 512.001;" xml:space="preserve">
<path style="fill:#CE4500;" d="M325.308,148.067c-35.013-35.013-91.782-35.013-126.795,0l-34.953,34.952
	c-7.041,7.041-16.076,11.765-25.887,13.467C65.401,209.021,10.468,272.022,10.465,347.888
	c0.01,84.877,68.795,153.662,153.662,153.663c75.86-0.001,138.853-54.93,151.399-127.194c1.703-9.808,6.427-18.839,13.466-25.878
	l34.966-34.966c35.013-35.013,34.99-91.805-0.024-126.819L325.308,148.067z"/>
<circle style="fill:#FF9D3B;" cx="217.921" cy="294.088" r="65.822"/>
<path style="fill:#CE4500;" d="M387.741,97.823l26.451,26.451c10.248,10.248,26.862,10.248,37.109,0l41.638-41.638
	c10.248-10.248,10.248-26.862,0-37.109l-26.451-26.451c-10.248-10.248-26.862-10.248-37.109,0l-41.638,41.638
	C377.493,70.96,377.493,87.575,387.741,97.823z"/>
<polygon style="fill:#FAF9F9;" points="380.005,97.403 247.835,229.776 282.341,264.282 414.512,131.908 "/>
<circle style="fill:#CE4500;" cx="217.921" cy="294.088" r="24.177"/>
<path d="M126.668,334.564c-4.08-4.079-10.696-4.079-14.776,0c-4.08,4.08-4.08,10.696,0,14.777l50.972,50.972
	c2.041,2.041,4.714,3.06,7.388,3.06s5.348-1.021,7.388-3.06c4.08-4.08,4.08-10.696,0-14.777L126.668,334.564z"/>
<path d="M178.734,333.23c-4.062-4.096-10.677-4.125-14.776-0.061c-4.097,4.063-4.124,10.679-0.061,14.776l0.123,0.124
	c2.043,2.059,4.73,3.091,7.419,3.091c2.659,0,5.319-1.009,7.358-3.03c4.097-4.063,4.124-10.679,0.061-14.776L178.734,333.23z"/>
<path d="M508.923,87.437l-3.613-3.613c3.746-5.843,5.762-12.636,5.762-19.742c0-9.801-3.817-19.014-10.746-25.943l-26.452-26.451
	C461.489-0.696,442.386-2.349,428.196,6.71l-3.65-3.65c-4.08-4.08-10.696-4.08-14.777,0c-4.08,4.08-4.08,10.696,0,14.777
	l3.036,3.036l-3.892,3.892l-3.036-3.036c-4.08-4.08-10.696-4.08-14.777,0c-4.08,4.08-4.08,10.696,0,14.777l3.036,3.036l-3.892,3.892
	l-3.036-3.036c-4.08-4.08-10.696-4.08-14.777,0c-4.08,4.08-4.08,10.696,0,14.777l3.503,3.503c-6.531,9.623-7.989,21.679-4.369,32.39
	l-44.429,44.497c-39.286-33.804-98.778-32.118-136.013,5.114l-34.953,34.952c-5.574,5.574-12.588,9.226-20.284,10.56
	c-37.625,6.526-72.033,26.23-96.884,55.484C13.864,271.268,0.018,308.988,0.017,347.89c0.011,90.489,73.631,164.108,164.11,164.11
	c38.896-0.001,76.614-13.845,106.207-38.985c29.25-24.847,48.954-59.25,55.487-96.871c1.336-7.693,4.987-14.706,10.559-20.278
	l34.966-34.966c18.907-18.907,29.316-44.051,29.309-70.8c-0.006-24.221-8.552-47.128-24.21-65.281l44.352-44.42
	c3.864,1.324,7.906,1.99,11.949,1.99c7.201,0,14.4-2.111,20.592-6.313l3.472,3.472c2.041,2.041,4.714,3.06,7.388,3.06
	s5.348-1.02,7.388-3.06c4.08-4.08,4.08-10.696,0-14.777l-3.005-3.005l3.892-3.892l3.005,3.005c2.041,2.041,4.714,3.06,7.388,3.06
	c2.674,0,5.348-1.02,7.388-3.06c4.08-4.08,4.08-10.696,0-14.777l-3.005-3.005l3.892-3.892l3.005,3.005
	c2.041,2.041,4.714,3.06,7.388,3.06s5.348-1.021,7.388-3.06C513.005,98.133,513.003,91.518,508.923,87.437z M280.835,251.002
	c-2.614-3.813-5.594-7.449-8.978-10.833c-3.332-3.332-6.928-6.301-10.725-8.923l122.533-122.722l19.731,19.731L280.835,251.002z
	 M379.758,250.106c0.005,21.166-8.229,41.06-23.188,56.019l-34.966,34.967c-8.633,8.633-14.295,19.52-16.371,31.479
	c-11.925,68.682-71.267,118.532-141.105,118.534C85.17,491.103,20.923,426.857,20.914,347.889
	c0.002-69.851,49.857-129.195,118.545-141.109c11.963-2.075,22.853-7.737,31.489-16.374l34.953-34.952
	c29.089-29.087,75.349-30.767,106.435-5.065l-70.996,71.105c-7.471-2.4-15.344-3.665-23.417-3.665
	c-20.374,0-39.528,7.934-53.934,22.341c-20.715,20.714-27.71,50.822-18.256,78.574c1.861,5.462,7.799,8.382,13.259,6.521
	c5.462-1.861,8.382-7.797,6.521-13.259c-6.866-20.156-1.788-42.02,13.252-57.059c10.459-10.46,24.365-16.22,39.158-16.22
	c14.793,0,28.698,5.76,39.158,16.22c21.592,21.591,21.592,56.724,0,78.316c-15.034,15.032-36.889,20.114-57.038,13.258
	c-5.461-1.855-11.398,1.064-13.257,6.527c-1.859,5.463,1.064,11.398,6.527,13.257c8.165,2.777,16.532,4.131,24.806,4.131
	c19.837,0,39.127-7.786,53.739-22.397c20.845-20.846,27.058-50.851,18.679-77.177l71.086-71.195
	C373.359,213.831,379.754,231.476,379.758,250.106z M421.581,116.886L395.13,90.435c-2.983-2.982-4.625-6.948-4.625-11.167
	c0-4.218,1.642-8.184,4.625-11.166l41.638-41.638c3.078-3.079,7.123-4.618,11.166-4.618c4.045,0,8.088,1.539,11.167,4.618
	l26.451,26.451c2.983,2.982,4.625,6.948,4.625,11.167c0,4.218-1.642,8.184-4.625,11.166l-41.636,41.638
	C437.756,123.042,427.737,123.043,421.581,116.886z"/>
<path d="M217.926,328.717c19.092,0,34.626-15.533,34.626-34.626s-15.533-34.626-34.626-34.626S183.3,274.999,183.3,294.091
	S198.834,328.717,217.926,328.717z M217.926,280.362c7.571,0,13.729,6.159,13.729,13.729s-6.159,13.729-13.729,13.729
	c-7.57,0-13.729-6.159-13.729-13.729S210.356,280.362,217.926,280.362z"/>
<path d="M67.602,377.26c-1.589-5.547-7.375-8.759-12.921-7.169c-5.548,1.589-8.757,7.373-7.169,12.921
	c5.522,19.28,15.974,37.007,30.228,51.262c2.041,2.041,4.714,3.06,7.388,3.06c2.674,0,5.347-1.02,7.388-3.06
	c4.08-4.08,4.081-10.695,0-14.776C80.764,407.745,72.149,393.139,67.602,377.26z"/>
<path d="M63.827,350.254v-0.023c0-5.771-4.678-10.437-10.448-10.437s-10.448,4.689-10.448,10.46s4.678,10.448,10.448,10.448
	S63.827,356.024,63.827,350.254z"/>
<g>
</g>
<g>
</g>
<g>
</g>
<g>
</g>
<g>
</g>
<g>
</g>
<g>
</g>
<g>
</g>
<g>
</g>
<g>
</g>
<g>
</g>
<g>
</g>
<g>
</g>
<g>
</g>
<g>
</g>
</svg>
