<?xml version="1.0" encoding="UTF-8" standalone="no"?>
<!-- Generator: Adobe Illustrator 19.0.0, SVG Export Plug-In . SVG Version: 6.00 Build 0)  -->

<svg
   version="1.1"
   id="Layer_1"
   x="0px"
   y="0px"
   viewBox="0 0 512 463.69601"
   xml:space="preserve"
   sodipodi:docname="logodemo.svg"
   width="512"
   height="463.69601"
   inkscape:version="1.2.1 (9c6d41e410, 2022-07-14)"
   xmlns:inkscape="http://www.inkscape.org/namespaces/inkscape"
   xmlns:sodipodi="http://sodipodi.sourceforge.net/DTD/sodipodi-0.dtd"
   xmlns="http://www.w3.org/2000/svg"
   xmlns:svg="http://www.w3.org/2000/svg"><defs
   id="defs53" /><sodipodi:namedview
   id="namedview51"
   pagecolor="#ffffff"
   bordercolor="#000000"
   borderopacity="0.25"
   inkscape:showpageshadow="2"
   inkscape:pageopacity="0.0"
   inkscape:pagecheckerboard="0"
   inkscape:deskcolor="#d1d1d1"
   showgrid="false"
   inkscape:zoom="1.6347656"
   inkscape:cx="202.78136"
   inkscape:cy="232.44922"
   inkscape:window-width="1920"
   inkscape:window-height="1017"
   inkscape:window-x="-8"
   inkscape:window-y="-8"
   inkscape:window-maximized="1"
   inkscape:current-layer="Layer_1" />
<rect
   x="160"
   y="333.26398"
   style="fill:#333333"
   width="192"
   height="108.336"
   id="rect2" />
<polygon
   points="160,434.056 160,376.152 274.24,376.152 "
   id="polygon4"
   transform="translate(0,-24.152)" />
<path
   style="fill:#999999"
   d="M 377.456,463.696 H 134.544 c -9.424,0 -17.12,-7.712 -17.12,-17.12 v 0 c 0,-9.424 7.712,-17.12 17.12,-17.12 H 377.44 c 9.424,0 17.12,7.712 17.12,17.12 v 0 c 0.016,9.408 -7.696,17.12 -17.104,17.12 z"
   id="path6" />
<path
   style="fill:#d6d6d6"
   d="M 480,352 H 32 C 14.4,352 0,337.6 0,320 V 32 C 0,14.4 14.4,0 32,0 h 448 c 17.6,0 32,14.4 32,32 v 288 c 0,17.6 -14.4,32 -32,32 z"
   id="path8" />
<rect
   x="21.968"
   y="21.936001"
   style="fill:#0ba4e0"
   width="468.16"
   height="308.12799"
   id="rect10" />

<g
   id="g20"
   transform="translate(0,-24.152)">
</g>
<g
   id="g22"
   transform="translate(0,-24.152)">
</g>
<g
   id="g24"
   transform="translate(0,-24.152)">
</g>
<g
   id="g26"
   transform="translate(0,-24.152)">
</g>
<g
   id="g28"
   transform="translate(0,-24.152)">
</g>
<g
   id="g30"
   transform="translate(0,-24.152)">
</g>
<g
   id="g32"
   transform="translate(0,-24.152)">
</g>
<g
   id="g34"
   transform="translate(0,-24.152)">
</g>
<g
   id="g36"
   transform="translate(0,-24.152)">
</g>
<g
   id="g38"
   transform="translate(0,-24.152)">
</g>
<g
   id="g40"
   transform="translate(0,-24.152)">
</g>
<g
   id="g42"
   transform="translate(0,-24.152)">
</g>
<g
   id="g44"
   transform="translate(0,-24.152)">
</g>
<g
   id="g46"
   transform="translate(0,-24.152)">
</g>
<g
   id="g48"
   transform="translate(0,-24.152)">
</g>
</svg>
