<?xml version="1.0" encoding="UTF-8" standalone="no"?>
<!-- Generator: Adobe Illustrator 19.0.0, SVG Export Plug-In . SVG Version: 6.00 Build 0)  -->

<svg
   version="1.1"
   id="Layer_1"
   x="0px"
   y="0px"
   viewBox="0 0 511.999 511.999"
   style="enable-background:new 0 0 511.999 511.999;"
   xml:space="preserve"
   sodipodi:docname="main1.svg"
   inkscape:version="1.2.1 (9c6d41e410, 2022-07-14)"
   xmlns:inkscape="http://www.inkscape.org/namespaces/inkscape"
   xmlns:sodipodi="http://sodipodi.sourceforge.net/DTD/sodipodi-0.dtd"
   xmlns="http://www.w3.org/2000/svg"
   xmlns:svg="http://www.w3.org/2000/svg"><defs
   id="defs71"><style
     type="text/css"
     id="style240">
    @import url('http://fonts.googleapis.com/css?family=Roboto Mono');
 </style></defs><sodipodi:namedview
   id="namedview69"
   pagecolor="#ffffff"
   bordercolor="#000000"
   borderopacity="0.25"
   inkscape:showpageshadow="2"
   inkscape:pageopacity="0.0"
   inkscape:pagecheckerboard="0"
   inkscape:deskcolor="#d1d1d1"
   showgrid="false"
   inkscape:zoom="1.6347688"
   inkscape:cx="256.30535"
   inkscape:cy="256.30535"
   inkscape:window-width="1920"
   inkscape:window-height="1017"
   inkscape:window-x="-8"
   inkscape:window-y="-8"
   inkscape:window-maximized="1"
   inkscape:current-layer="Layer_1" />
<path
   style="fill:#E8DBB8;"
   d="M456.904,8.935h34.15c7.121,0,12.89,5.772,12.89,12.89v369.791c0,7.119-5.77,12.89-12.89,12.89  H20.947c-7.119,0-12.89-5.772-12.89-12.89V21.825c0-7.119,5.772-12.89,12.89-12.89h408.567"
   id="path2" />
<path
   style="fill:#53CAF9;"
   d="M127.68,333.649h320.359c6.802,0,12.316-5.515,12.316-12.316v-11.816V74.205V62.389  c0-6.801-5.514-12.316-12.316-12.316H63.961c-6.802,0-12.316,5.515-12.316,12.316v11.816v235.312v11.816  c0,6.801,5.514,12.316,12.316,12.316h36.866"
   id="path4" />
<path
   style="fill:#F5F5F5;"
   d="M448.039,50.073H63.961c-6.802,0-12.316,5.515-12.316,12.316v11.816v14.961h408.709V74.205V62.389  C460.355,55.588,454.841,50.073,448.039,50.073z"
   id="path6" />
<path
   style="fill:#547475;"
   d="M100.005,50.073H63.961c-6.802,0-12.316,5.515-12.316,12.316v11.816v14.961h48.359V50.073H100.005z"
   id="path8" />
<g
   style="opacity:0.2;"
   id="g12">
	<path
   style="fill:#231F20;"
   d="M33.146,391.616V21.825c0-7.119,5.772-12.89,12.89-12.89h-25.09c-7.119,0-12.89,5.772-12.89,12.89   v369.791c0,7.119,5.772,12.89,12.89,12.89h25.09C38.918,404.507,33.146,398.735,33.146,391.616z"
   id="path10" />
</g>
<path
   style="fill:#E8DBB8;"
   d="M399.624,490.173c0,7.119-5.77,12.89-12.89,12.89H125.263c-7.119,0-12.89-5.772-12.89-12.89v-22.992  c0-7.119,5.772-12.89,12.89-12.89h261.471c7.121,0,12.89,5.772,12.89,12.89V490.173z"
   id="path14" />
<rect
   x="184.031"
   y="404.509"
   style="fill:#CEC3A7;"
   width="143.942"
   height="49.789"
   id="rect16" />
<g
   id="g28">
	<path
   style="fill:#231F20;"
   d="M491.053,0.879h-34.15c-4.45,0-8.056,3.606-8.056,8.056s3.606,8.056,8.056,8.056h34.15   c2.665,0,4.834,2.169,4.834,4.834v369.791c0,2.665-2.169,4.834-4.834,4.834H327.97H184.029H20.947   c-2.665,0-4.834-2.169-4.834-4.834V21.825c0-2.665,2.169-4.834,4.834-4.834h408.567c4.45,0,8.056-3.606,8.056-8.056   s-3.606-8.056-8.056-8.056H20.947C9.397,0.879,0,10.276,0,21.825v369.791c0,11.55,9.397,20.947,20.947,20.947h155.025v33.672   h-50.709c-11.55,0-20.947,9.397-20.947,20.947v22.992c0,11.55,9.397,20.947,20.947,20.947h261.471   c11.55,0,20.947-9.397,20.947-20.947v-22.992c0-11.55-9.397-20.947-20.947-20.947h-50.707v-33.672h155.025   c11.55,0,20.947-9.397,20.947-20.947V21.825C512,10.276,502.603,0.879,491.053,0.879z M391.568,467.181v22.992   c0,2.665-2.169,4.834-4.834,4.834H125.263c-2.665,0-4.834-2.169-4.834-4.834v-22.992c0-2.665,2.169-4.834,4.834-4.834h58.766   H327.97h58.764C389.4,462.348,391.568,464.516,391.568,467.181z M319.914,446.235H192.085v-33.672h127.829V446.235z"
   id="path18" />
	<path
   style="fill:#231F20;"
   d="M94.871,361.539H69.906c-4.45,0-8.056,3.606-8.056,8.056c0,4.45,3.606,8.056,8.056,8.056h24.964   c4.45,0,8.056-3.606,8.056-8.056C102.927,365.146,99.321,361.539,94.871,361.539z"
   id="path20" />
	<path
   style="fill:#231F20;"
   d="M451.761,351.871h-27.113c-9.773,0-17.724,7.951-17.724,17.724c0,9.773,7.951,17.724,17.724,17.724   h27.113c9.773,0,17.724-7.951,17.724-17.724C469.486,359.823,461.533,351.871,451.761,351.871z M451.761,371.207h-27.113   c-0.888,0-1.611-0.723-1.611-1.611c0-0.888,0.723-1.611,1.611-1.611h27.113c0.888,0,1.611,0.723,1.611,1.611   C453.373,370.484,452.65,371.207,451.761,371.207z"
   id="path22" />
	<path
   style="fill:#231F20;"
   d="M351.244,351.871c-9.773,0-17.724,7.951-17.724,17.724c0,9.773,7.951,17.724,17.724,17.724h27.113   c9.773,0,17.724-7.951,17.724-17.724c0-9.773-7.951-17.724-17.724-17.724H351.244z M379.969,369.595   c0,0.888-0.723,1.611-1.611,1.611h-27.113c-0.888,0-1.611-0.723-1.611-1.611c0-0.888,0.723-1.611,1.611-1.611h27.113   C379.246,367.984,379.969,368.707,379.969,369.595z"
   id="path24" />
	<path
   style="fill:#231F20;"
   d="M448.039,42.017H100.005H63.961c-11.233,0-20.372,9.139-20.372,20.372v26.777v232.166   c0,11.233,9.139,20.372,20.372,20.372h36.866c4.45,0,8.056-3.606,8.056-8.056c0-4.45-3.606-8.056-8.056-8.056H63.961   c-2.349,0-4.259-1.91-4.259-4.259V97.223h40.304h352.293v224.11c0,2.348-1.91,4.259-4.259,4.259H127.68   c-4.45,0-8.056,3.606-8.056,8.056c0,4.45,3.606,8.056,8.056,8.056h320.359c11.233,0,20.372-9.139,20.372-20.372V89.167V62.389   C468.411,51.156,459.272,42.017,448.039,42.017z M59.701,81.11V62.389c0-2.348,1.91-4.259,4.259-4.259h27.988v22.98H59.701z    M108.062,81.11V58.13h339.978c2.349,0,4.259,1.91,4.259,4.259V81.11H108.062z"
   id="path26" />
</g>
<g
   style="opacity:0.2;"
   id="g32">
	<path
   style="fill:#231F20;"
   d="M76.831,321.333v-11.816V74.205V62.389c0-6.801,5.515-12.316,12.316-12.316H63.961   c-6.802,0-12.316,5.515-12.316,12.316v11.816v235.312v11.816c0,6.801,5.514,12.316,12.316,12.316h25.186   C82.345,333.649,76.831,328.134,76.831,321.333z"
   id="path30" />
</g>
<g
   style="opacity:0.2;"
   id="g36">
	<rect
   x="184.031"
   y="404.509"
   style="fill:#231F20;"
   width="25.186"
   height="49.789"
   id="rect34" />
</g>
<g
   id="g38">
</g>
<g
   id="g40">
</g>
<g
   id="g42">
</g>
<g
   id="g44">
</g>
<g
   id="g46">
</g>
<g
   id="g48">
</g>
<g
   id="g50">
</g>
<g
   id="g52">
</g>
<g
   id="g54">
</g>
<g
   id="g56">
</g>
<g
   id="g58">
</g>
<g
   id="g60">
</g>
<g
   id="g62">
</g>
<g
   id="g64">
</g>
<g
   id="g66">
</g>
<text
   x="81.06517"
   y="201.76003"
   style="font-size:52.3775px;font-family:'Roboto Mono';stroke-width:4.36478"
   id="text244"
   transform="scale(0.91805774,1.0892561)">Silima Software</text></svg>
