<?xml version="1.0" encoding="iso-8859-1"?>
<!-- Generator: Adobe Illustrator 19.0.0, SVG Export Plug-In . SVG Version: 6.00 Build 0)  -->
<svg version="1.1" id="Layer_1" xmlns="http://www.w3.org/2000/svg" xmlns:xlink="http://www.w3.org/1999/xlink" x="0px" y="0px"
	 viewBox="0 0 512 512" style="enable-background:new 0 0 512 512;" xml:space="preserve">
<circle style="fill:#83CF8F;" cx="256" cy="256" r="256"/>
<polygon style="fill:#FEFEFE;" points="250.534,149.956 259.462,149.956 259.462,193.503 250.534,193.503 "/>
<path style="fill:#6B7F9E;" d="M256,182.389c40.632,0,73.611,32.979,73.611,73.611S296.632,329.611,256,329.611
	S182.389,296.632,182.389,256S215.368,182.389,256,182.389z"/>
<path style="fill:#8597B1;" d="M256,182.389c29.153,0,54.298,16.945,66.323,41.543c1.822,6.742,2.733,13.665,2.733,20.954
	c0,44.458-36.077,80.353-80.353,80.353c-6.559,0-13.119-0.729-19.132-2.369c-25.327-11.661-43.001-37.17-43.001-67.052
	c0-40.632,32.979-73.611,73.611-73.611L256,182.389z"/>
<path style="fill:#E4E7ED;" d="M301.916,198.605c13.665,10.932,23.322,26.784,26.602,44.641c-0.182-0.364-0.364-0.729-0.729-1.458
	c-1.458,0.547-1.458,0.547-3.098,0.729v0.182c-0.729,0.911,0,0.547-1.093,1.64c-1.458,1.275-2.369,2.733-3.826,3.826
	c-0.182,1.64,0.182,2.004-0.364,4.009c-0.182,0.729-0.911,2.733-2.004,2.551c-0.364,0-1.64-3.28-1.822-4.191
	c-0.547-1.458-1.093-2.551-1.458-4.373c-0.182-0.911-0.364-2.733-0.547-3.28c-1.093,0.182-0.911,0.729-2.004,0.182
	c-0.729-0.547-0.364-0.729-0.729-1.458c-0.729-0.729-1.64-1.458-2.369-2.186c-0.547-0.182-3.098,0.182-4.191,0
	c-1.822-0.182-2.004,0-3.098-1.458c-2.004,0.182-1.822,0.911-3.644-0.729c-1.275-1.093-1.093-2.733-2.915-1.822
	c0,1.458,0.729,1.822,1.275,2.551c0.547,0.547,1.093,0.911,1.458,1.64l0.182,0.729c1.822,0.182,2.186-0.729,3.098-1.458
	c0.911,0.911,0,1.093,1.458,1.822c1.093,0.547,0.911,0.182,1.64,1.093c0.364,1.275-2.369,4.373-3.28,4.92
	c-0.729,0.364-1.093,0.182-1.64,0.729c-0.911,0.729,0.182,0.729-1.458,1.275c-1.822,0.729-3.462,2.004-5.284,2.186
	c-0.364-1.093-0.729-2.186-1.275-3.28c-1.093-3.826-1.093-2.369-2.369-4.373c-0.547-0.911-0.364-1.458-0.729-2.186
	c-0.182-0.547-0.729-0.729-1.093-1.458c-0.547-1.093-1.093-2.733-2.369-2.551c-0.182,0.911,1.093,3.644,1.458,4.373
	c0.364,0.729,0.911,1.093,1.093,2.004c0.182,1.458,0,1.275,0.729,2.186c1.64,1.822,0,1.64,2.369,3.462
	c1.822,1.458,1.275,1.822,2.186,3.644c1.275,0.364,4.737-1.275,5.466-0.729c0.729,1.275-0.911,3.462-1.275,4.555
	c-1.275,3.826-3.644,3.826-5.466,6.559c-0.911,1.64-1.458,1.822-2.369,3.644c-1.093,2.186,2.004,8.017,0.182,10.568
	c-0.364,0.547-1.64,0.911-3.28,2.551c-1.64,1.822,0,1.458-0.547,4.737c-0.547,0.729-1.093,0.729-1.822,1.275
	c-0.182,0.729,0,1.275-0.364,2.186c-0.364,1.093-0.547,0.547-1.093,1.458c-0.364,0.729-0.364,0.911-0.911,1.64
	c-0.364,0.547-0.729,0.729-1.093,1.093c-2.004,1.822-6.377,2.004-6.742,1.64c-1.093-0.911-0.364-1.093-0.547-2.369
	c-0.182-1.093-0.911-2.004-1.275-2.915l0,0c-0.182-0.364-0.364-0.729-0.547-1.275c-0.911-2.733-0.547-4.737-2.004-7.47
	c-1.822-3.462,1.093-5.284,0.911-7.288c0-0.547-0.182-0.911-0.364-1.275c-0.364-2.186-0.547-4.191-2.004-5.831
	c-1.64-1.822-1.458-1.275-0.911-4.191c0.729-3.462-0.911-2.551-2.915-2.733c-1.093-3.28-3.098-1.64-5.102-0.729
	c-1.275,0.547-1.822-0.182-3.098,0c-3.28,0.364-0.729,1.822-4.92-1.64c-1.822-1.458-0.547-0.729-1.64-2.551
	c-0.364-0.729-1.458-1.458-2.004-2.186c-1.64-2.004,0.364-4.009,0-6.377c-0.547-4.373-1.275-0.547,1.275-5.831
	c1.275-2.733,3.28-2.733,3.644-4.009c0.364-1.093,0.182-1.822,0.911-2.915c0.729-0.911,1.64-0.729,2.186-2.004
	c0.547-1.64-0.547-1.822-1.64-1.822c-0.547-1.64-0.547-1.275-0.182-2.733c0.182-0.911,0-1.275,0.182-2.186
	c0.547-2.186,4.191,0,5.284-0.911c0.547-0.911,0.547-1.822,0-2.733c-0.547-0.911-1.275-0.729-1.822-1.64
	c0.911-0.547,0.182,0,1.093-0.182s0.729-0.547,1.822-0.729c0.911-0.182,1.64-1.093,2.551-1.64c1.275-0.911,0.729-1.64,2.369-1.822
	c2.551-0.364,0.911-0.364,1.275-2.733c0.364-0.182,0.729-0.364,1.093-0.547c0.911,1.093-0.182,0.729,0.729,1.275
	c0.182-0.182,0.547-0.364,0.911-0.364c-0.182-1.093-0.729-0.911-1.093-2.369c-1.275,0.182-1.822,1.275-2.733,0.911
	c-1.093-0.364-1.093-1.822-1.093-3.098c0.364-0.911,2.186-1.458,2.915-1.64c1.093-0.364,1.093-1.275,2.186-2.186
	c1.458-1.458,0.364,0,1.093-1.822c1.64,0,0.911-0.182,1.822-0.547l0,0h0.182c0.547-0.182,1.275-0.364,2.004-0.547
	c2.551-0.911,3.644-0.364,5.466,0.364c1.458,0.547,5.831,0.547,6.195,2.551c-1.093,1.093-2.004,0.364-3.644,0.364
	c0.364,1.458,0.364,1.458,1.64,1.822c0.182-0.729-0.182-0.364,0.182-0.911c0.364,0.182,0.911,0.182,1.275,0.182
	c0.364-1.458,0.911-1.275,2.369-1.458c-0.182-0.911-0.547-0.729,0-1.458c1.458,0.182,0.364,0,1.093,1.275
	c1.093-0.182,2.004-1.275,3.462-1.458c0.911-0.182,0.911,0.182,2.186,0.182c1.093-0.182,0.911-0.547,2.004,0
	c0.364-0.729,0-0.729,0.911-0.911c1.458-0.182,2.551,0.547,4.009,0.729c-1.093-1.275-2.004-1.093-0.729-3.098
	c1.64-0.364,1.64-0.182,2.369,1.093c0.364-0.182,0.547-0.364,0.729-0.547L301.916,198.605z M184.028,240.148
	c3.28-15.123,11.297-28.424,22.229-38.446c0.911,0.364,2.004,0.182,2.915,0c0.364-0.547,0.547-1.093,1.093-1.275
	c0.182,0,0.547-0.182,0.911,0c0,0.364,0.182,0.547,0.182,0.911v0.182v0.182c1.458-0.911,0.182-0.911,1.093-2.369
	c-1.275-0.182-1.093-0.182-1.822-0.911c0.729-0.911,2.186-1.093,3.28-1.093c0,0.729-0.364,0.729-0.182,1.458
	c0.911-0.547,1.458-2.004,2.733-1.64c0.182,0.182,0.547,0.364,0.911,0.547c-0.729,0.729-1.822,0.729-2.733,1.093
	c-0.364,4.009,1.275,0.729,0.729,3.462c1.093,0,2.004-0.729,2.369-1.64c-0.364-0.547-0.911-0.547-1.275-1.093
	c0.182-0.729,0.729-1.275,1.458-1.64c0.547-0.182,1.093-0.364,1.64-0.364c7.47,0,4.009,0.364,6.195,1.458
	c0.547,0.182,1.458,0.364,1.822,0.729c0.547,0.729,0,1.458,0.729,2.004c0.729,0.547,0.729,0,1.64,1.093
	c-0.182,0.547-0.547,1.275-1.64,1.275c-1.275,0-0.547-0.911-1.822-0.729c0,1.275,1.275,1.822,0.182,2.551
	c-1.093,0.547-0.364-0.182-1.093,0.182h-0.182l-0.182,0.182c-0.182,0.182-0.182,0.364-0.364,0.364
	c-1.822-0.547-1.458-0.364-2.733-1.458c-0.364-0.547-0.547-0.547-1.275-0.547c-0.547,0-1.093,0.182-1.458-0.182
	c0.911-1.093,1.458,0,2.733-0.729c0.182-0.182,1.64-1.275,2.004-1.458c-0.364-0.911,0-0.182-0.547-0.729
	c-1.275-1.275-1.64-1.093-3.462-1.093c-0.911,0.911-1.458,2.186-2.369,2.733c-0.547,0.364-1.275,0.364-2.004,0
	c0.364,1.64,1.458,0.364,1.458,2.369c-0.729-0.182-1.093-0.547-1.822-0.182c-1.458,0.547-0.182,0.547,0,0.729
	c0,0,0.729,0.182,0,0.364c-0.729,0.364-0.182-0.182-1.64-1.093c0.182-0.364,0.364-0.729,0.547-1.093
	c-1.275,0.364-2.733,0.911-4.191,1.64c-1.64,0.729-3.098,1.822-4.009,2.551c0,1.458,0.182,0.547,0.364,2.186
	c2.186,0.182,1.458,0.729,3.644,1.458c0.364,0.182,0.911,0.182,1.64,0.364c0,1.093-0.911,1.822-0.364,2.915
	c1.458,1.093,1.64-1.093,2.004-2.369c5.102-1.093,2.733-2.551,4.009-5.466c0.182-0.364,0.547-0.911,0.911-1.458
	c0.364,0,2.004,0.182,2.369,0.182c1.093,0.182,0.547,0.547,1.822,1.093c0,1.093-0.547,2.369,0.911,2.186
	c1.093-0.182,0.911-1.093,2.369-1.275c0.547,1.458,0.547,2.186,0.729,4.009c3.462,1.275,1.822,2.369,1.275,4.92
	c0.364,0.182,0.911,0.364,1.275,0.547c0,0.729,0,1.458,0,2.186c0,0-3.644-0.729-3.826-0.911c0.547-1.64,1.458-1.64,2.186-3.098
	c-1.275,0.182-1.093,0.547-2.186,0.911c-0.911,0.182-1.458,0-2.369,0.182c-0.364,1.093,0-0.911,0,0.364c0,0.547,0.364,0,0,0.547
	c-1.093-0.547-0.729-1.822-2.915-0.729c0.547,0.182,0.911,0.364,1.458,0.729c0,1.458-0.182,0.364-0.547,1.275
	c-0.729,2.551,2.004,0.911,2.733,0.729c-0.182,1.275-0.911,1.275-2.186,1.64c-1.275,0.364-1.64,0.911-2.551,1.093
	c0-1.458-0.182-0.182,0.364-1.275c-0.911,0.182-1.64,0.547-2.733,0.911h-0.182c-1.275,0.547-1.458,0.547-1.458,2.186
	c-1.093,0.364-2.186,0.729-2.915,1.458s-1.458,1.458-2.186,2.004l-0.182,0.182c0.182,2.004,0,2.004-1.093,2.733
	c-0.911,0.729-1.275,0.547-2.186,1.458c-2.915,2.551-1.458,1.458-1.458,6.013c-0.547-0.182-1.275-0.364-1.822-0.547
	c-0.364-3.098,0.182-2.004-2.186-2.733c-2.551-0.729-2.186,0.547-3.28,0.729c-1.275,0.182-1.822-1.093-3.462,0
	c-0.911,0.729-1.822,1.093-2.186,2.186c-0.364,1.458-0.911,2.369-0.911,4.009c0.182,4.191,4.009,4.555,5.102,2.551
	c0.729-1.275,0.547-2.004,2.551-1.64c0.182,1.093-0.182,2.004-0.364,2.915c-0.182,0.547-0.729,1.458-0.364,2.186
	c1.458,0.547,1.64-0.547,3.644,0.729c0.182,2.004-0.911,4.373,0.547,5.466c1.275,0.911,1.275,0.182,2.369-0.182
	c1.093-0.182,0.911,0.547,2.004,0.729c0.547-0.729,0.364-0.364,0.729-1.275c0.729-1.64,0.911-0.911,2.551-1.822
	c0.182-0.182,0.364-0.182,0.547-0.364c0.182,0.364,0.364,0.729,0.547,1.093c1.275-1.458,1.458,0,2.733,0.364
	c0.547,0.182,1.093,0.182,1.458,0.182c1.093,0,1.093-0.547,2.551,0c0.182,0,0.364,0.182,0.547,0.182h0.182c0,0,0.182,0,0.182,0.182
	c0.182,0.182,0.182,0.547,0.364,0.729c0.911,0.911,2.004,1.822,2.915,2.733c1.822,0.729,1.822-0.729,4.009,1.458
	c0.911,0.911,0.547,0.911,0.911,2.004c0,0.182,0.182,0.364,0.364,0.547c0.182,0.547,0.364,0.911,0.547,1.458
	c0.911,1.275,2.369,0.547,3.644,1.822c0.729,0.729,0.182,0.547,1.822,0.911c2.733,0.364,1.64,0.182,3.644,1.64
	c0.729,0.547,0.911,0.182,1.64,0.729c1.093,1.458,0.729,2.915-0.182,4.191c-2.551,3.826-1.64,3.098-1.822,6.195
	c-0.182,1.822-0.547,5.284-2.186,5.831c-5.831,1.64-2.551,2.733-4.009,5.648c-0.364,0.911-0.729,1.093-1.093,1.64
	c-1.093,2.733-0.364,3.644-3.826,3.098c0.364,0.547,0.182,0.182,0.364,0.729c1.093,1.64,1.275,2.733-0.911,3.28
	c-1.822,0.364-1.093,0-1.093,2.004c-0.729,0.364-0.911,0-1.458,0.364c0.547,1.093,0,0.182,1.093,0.911
	c-0.182,0.547-0.364,1.275-0.547,1.822c-0.364,1.458-0.547,0.182-0.729,1.822c0.547,0.364,1.093,0.182,1.64,0.911
	c0,0.547-0.547,2.186-0.729,2.915c0.911,1.275,1.64,2.733,3.462,2.915c0,1.093,0.182,0.911-0.729,1.275
	c-0.729,0.182-2.551-0.547-3.28-0.911c-1.275-0.729-2.369-1.458-3.098-2.733c-0.547-0.729-0.364-0.364-0.729-1.093
	c-0.911-1.093-0.547-1.64-0.729-2.369c-0.182-0.364-0.911-0.911-0.547-2.369c0-0.364,0.729-2.369,0-2.004
	c-0.729,0.364,0.547,0.182-0.547,0.729c-0.182-0.729-0.547-1.822-0.547-2.733c-0.364-1.458-0.547-1.458-0.729-2.369
	c-0.364-2.186,0.547-2.369-0.364-5.831c-0.729-2.369-0.364-7.835-1.093-10.568c-0.182-0.364-0.182-0.911-0.364-1.093
	c-0.547-1.093-2.186-1.458-3.462-2.369h-0.182c-1.64-1.275-3.28-6.013-4.737-7.653c-0.547-0.911-1.093-0.547-1.275-1.822
	c-0.364-1.275,0.182-1.093,0.547-2.004c-2.186-3.826,2.733-3.826,1.64-8.382c-0.182-0.911-0.911-2.004-1.275-2.369
	c-0.911,0.364-0.547,0.729-1.093,1.458c-0.729-0.364-1.64-0.911-2.369-1.275c-2.369-2.369-1.093-0.729-1.822-2.186
	c-1.458-3.28-2.915-1.458-4.555-2.915c-0.729-0.729-0.911-1.64-2.186-1.458c-2.004,0.182-0.911,0.547-2.915-0.364
	c-1.64-0.729-3.462-1.822-4.737-2.915c0-2.369,0.547-2.004-1.093-4.191V240.148z M207.169,200.974
	c0.364-0.364,0.911-0.729,1.275-1.093l0,0c0.182,0.182,0.182,0.182,0.182,0.547c-1.275,0.364-1.275,0.547-1.64,0.547H207.169z
	 M270.212,222.838c0.729,0.364,1.458,0.729,2.004,1.093c0.547,1.64-0.182,0.911,1.093,2.551c0.729,0.911,0.547,1.64,1.275,2.186
	c1.275-0.182,0.182,0.182,0.911-0.547c0.182-0.182,0.547-0.547,0.729-0.729c-0.364-0.729-0.729-0.729-1.093-1.275
	c1.458-2.004,2.186-0.911,2.369,0.364c0.911,3.644,2.369,2.551,3.462,2.369c1.275-0.182,0.182,0,1.275,0.364
	c1.093,0.182,0.547,0,1.275-0.182c2.551-0.547,0.547,4.191,0.364,4.737c-1.275,0.182-1.093-0.182-2.004-0.182
	c-2.004-0.182,0.182,1.093-4.555-0.364c-4.373-1.458-3.462-1.822-4.373,1.275c-1.093,0-0.911-0.182-1.822-0.547
	c-0.364-0.182-0.547-0.182-0.729-0.182l0,0c-0.364-0.182,0,0-0.729-0.729c-0.729-0.729-2.369-0.729-3.462-1.458
	c0-1.093,0.911-1.822-0.182-3.098c-0.364-0.182-5.284,0.182-6.195,0.364c-1.64,0.364-1.822,1.64-4.191,1.458
	c-1.275-0.182-0.729,0-1.093-0.729c0.364-0.364,0-0.182,0.729-0.364c0.182-0.182,0.364,0,0.547-0.182
	c3.644-0.547,1.822-2.369,4.009-4.191c1.822-1.458,0.364,0,1.458-1.822c1.275-0.182,1.093,0.547,2.186,0
	c0.911-0.364,0.547-0.911,1.822-0.911c1.093,1.093,0.911,1.822,2.733,2.733c0.729,0.364,1.093,0.547,1.64,1.093
	c0.911,1.275,0.182,0.729,0.364,1.64c0,0,0.182,0,0.182-0.182l0,0c0.911-0.547-0.547-0.547,1.093-2.004
	c-0.547-0.364-0.729-0.547-1.093-0.729l0,0c-1.275-0.729-0.729,0-2.369-2.004c-0.364-0.547-0.547-0.547-0.547-1.458
	c1.093-0.182,1.275,0.547,2.369,1.458c0.182,0.182,0.364,0.182,0.547,0.364l0,0V222.838z M295.357,273.674
	c-1.093,0.547-1.093,1.822-2.004,2.369c-0.911,0.729-2.004,0.364-2.369,1.822c-0.364,1.822,0.729,1.275-0.547,3.644
	c-0.364,0.911-0.547,3.098,0.182,3.644c2.004,2.004,3.098-3.098,3.644-4.555c0.364-1.093,0.729-2.369,1.093-3.462
	c0.364-1.093,0.911-2.004-0.182-3.462H295.357z M291.895,221.016c0.182,2.369,1.458,3.28,2.551,4.191
	c-0.182,1.093-0.364,0.729-0.364,2.369c1.093,0.911,2.004,1.275,3.462,0.911c0.182-1.822-0.364-1.822-0.911-3.098
	c0.182-0.182,0.364-0.364,0.364-0.364c0.364-0.547,0.182,0.182,0.364-0.729c-1.093-0.364-2.915-1.458-3.098-2.915
	c0.547-0.364,0.364-0.182,0.729-0.364c0.911-0.547,0.182,0.364,0.729-0.729c-0.364-0.911-0.911-1.093-2.004-0.547
	c-0.547,0.182-1.64,1.093-2.004,1.275H291.895z M282.238,221.563c-0.729-1.093-0.729-1.458-2.186-1.64
	c-0.547,0.547-1.275,1.458-1.458,2.369c-0.547,1.458-0.182,0.364-0.182,2.004v0.182c0,0.911-0.182-0.182-0.182,0.729
	c1.093-0.182,0.182-0.182,1.093-0.547c0.729-0.182,3.098-0.911,3.826-0.729c1.64,0.364,2.915,1.64,4.92,0.364
	c-0.182-1.64-2.004-2.186-3.462-2.915c0-1.458,0.547-0.364,0.364-1.822c-0.547,0-0.729-0.182-1.275,0.182
	c-1.093,0.547-0.547,0.547-0.547,0.729c0,0.729,1.093-0.182,0,0.911c-0.364,0.182-0.729,0.182-1.093,0.364L282.238,221.563z
	 M254.725,210.084c0,2.551,0.911,1.822,1.822,3.098c-0.364,1.093-0.547,0.182-0.911,1.458c-0.364,0.911,0.182,0.182-0.182,1.822
	c0.729,0,1.64-0.182,2.551-0.364c1.275-0.182,1.275-0.182,1.64-1.458c-0.729-0.911-1.458-1.822-2.186-2.551
	c-0.911-1.458,0-0.364-0.364-1.64c-0.182-0.364-0.364-0.911-0.547-1.275c-1.275,0.364-1.093,0.364-2.004,1.093L254.725,210.084z"/>
<path style="fill:#6C7678;" d="M179.656,36.259h152.871c5.102,0,9.11,4.191,9.11,9.11v94.201H170.545V45.369
	C170.545,40.268,174.736,36.259,179.656,36.259z"/>
<path style="fill:#FEFEFE;" d="M176.74,133.375h158.702V45.369c0-1.64-1.275-2.915-2.915-2.915H179.656
	c-1.64,0-2.915,1.275-2.915,2.915V133.375z"/>
<path style="fill:#E4E7ED;" d="M157.791,139.57h196.601v5.284c0,2.915-2.369,5.284-5.284,5.284H163.075
	c-2.915,0-5.284-2.369-5.284-5.284V139.57z"/>
<polygon style="fill:#C6CBD6;" points="237.233,141.028 274.767,141.028 270.759,143.761 241.241,143.761 "/>
<path style="fill:#6C7678;" d="M47.738,343.277h152.871c5.102,0,9.11,4.191,9.11,9.11v94.201H38.628v-94.201
	C38.628,347.285,42.819,343.277,47.738,343.277z"/>
<path style="fill:#FEFEFE;" d="M44.641,440.393h158.702v-88.006c0-1.64-1.275-2.915-2.915-2.915H47.556
	c-1.64,0-2.915,1.275-2.915,2.915V440.393z"/>
<path style="fill:#E4E7ED;" d="M25.691,446.588h196.601v5.284c0,2.915-2.369,5.284-5.284,5.284H30.975
	c-2.915,0-5.284-2.369-5.284-5.284V446.588z"/>
<polygon style="fill:#C6CBD6;" points="105.315,448.046 142.85,448.046 138.841,450.779 109.324,450.779 "/>
<path style="fill:#6C7678;" d="M311.573,343.277h152.871c5.102,0,9.11,4.191,9.11,9.11v94.201H302.463v-94.201
	C302.463,347.285,306.653,343.277,311.573,343.277z"/>
<path style="fill:#FEFEFE;" d="M308.658,440.393h158.702v-88.006c0-1.64-1.275-2.915-2.915-2.915H311.573
	c-1.64,0-2.915,1.275-2.915,2.915V440.393z"/>
<path style="fill:#E4E7ED;" d="M289.708,446.588h196.601v5.284c0,2.915-2.369,5.284-5.284,5.284H294.992
	c-2.915,0-5.284-2.369-5.284-5.284V446.588z"/>
<g>
	<polygon style="fill:#C6CBD6;" points="369.15,448.046 406.685,448.046 402.676,450.779 373.159,450.779 	"/>
	<polygon style="fill:#C6CBD6;" points="250.534,149.956 259.462,149.956 259.462,156.698 250.534,156.698 	"/>
</g>
<polygon style="fill:#FEFEFE;" points="209.72,403.405 209.72,394.659 302.463,394.659 302.463,403.405 "/>
<path style="fill:#FFE356;" d="M244.703,403.769v-9.475c0-1.458,1.093-2.551,2.551-2.551h15.305c1.458,0,2.551,1.093,2.551,2.551
	v9.475c0,1.458-1.093,2.551-2.551,2.551h-15.305C245.796,406.32,244.703,405.227,244.703,403.769z"/>
<polygon style="fill:#FEFEFE;" points="250.534,329.611 259.462,329.611 259.462,391.744 250.534,391.744 "/>
<polygon style="fill:#C6CBD6;" points="250.534,329.611 259.462,329.611 259.462,336.353 250.534,336.353 "/>
<g>
</g>
<g>
</g>
<g>
</g>
<g>
</g>
<g>
</g>
<g>
</g>
<g>
</g>
<g>
</g>
<g>
</g>
<g>
</g>
<g>
</g>
<g>
</g>
<g>
</g>
<g>
</g>
<g>
</g>
</svg>
